<?xml version="1.0" encoding="UTF-8" standalone="no"?>
<svg
   width="660pt"
   height="660pt"
   viewBox="0 0 660 660"
   version="1.1"
   id="svg45"
   xmlns="http://www.w3.org/2000/svg"
   xmlns:svg="http://www.w3.org/2000/svg">
  <defs
     id="defs45" />
  <path
     fill-rule="evenodd"
     fill="rgb(89.256287%, 91.798401%, 97.087097%)"
     fill-opacity="1"
     d="M 331.445312 84.207031 C 480.339844 84.207031 601.046875 204.910156 601.046875 353.808594 C 601.046875 420.824219 576.585938 482.125 536.117188 529.28125 L 126.769531 529.28125 C 86.300781 482.125 61.839844 420.824219 61.839844 353.808594 C 61.839844 204.910156 182.542969 84.207031 331.445312 84.207031 "
     id="path1" />
  <path
     fill-rule="evenodd"
     fill="rgb(26.843262%, 53.117371%, 19.946289%)"
     fill-opacity="1"
     d="M 601.414062 437.605469 C 616.664062 437.605469 629.03125 467.742188 629.03125 504.917969 C 629.03125 513.511719 628.367188 521.726562 627.164062 529.285156 L 533.136719 529.285156 C 525.308594 515.089844 520.386719 494.476562 520.386719 471.535156 C 520.386719 428.722656 537.527344 394.015625 558.679688 394.015625 C 574.332031 394.015625 587.789062 413.027344 593.730469 440.253906 C 596.171875 438.53125 598.746094 437.605469 601.414062 437.605469 M 91.550781 401.324219 C 97.964844 401.324219 104.101562 404.265625 109.757812 409.628906 C 120.113281 384.480469 135.398438 368.574219 152.449219 368.574219 C 183.628906 368.574219 208.910156 421.777344 208.910156 487.410156 C 208.910156 502.148438 207.628906 516.257812 205.300781 529.285156 L 40.269531 529.285156 C 40.269531 458.613281 63.226562 401.324219 91.550781 401.324219 "
     id="path2" />
  <path
     fill-rule="evenodd"
     fill="rgb(26.843262%, 53.117371%, 19.946289%)"
     fill-opacity="1"
     d="M 331.445312 537.5625 C 503.089844 537.5625 643.085938 533.839844 643.085938 529.285156 C 643.085938 524.71875 503.089844 521.003906 331.445312 521.003906 C 159.796875 521.003906 19.800781 524.71875 19.800781 529.285156 C 19.800781 533.839844 159.796875 537.5625 331.445312 537.5625 "
     id="path3" />
  <path
     fill-rule="evenodd"
     fill="rgb(67.082214%, 73.498535%, 56.771851%)"
     fill-opacity="1"
     d="M 47.066406 519.804688 L 352.789062 519.804688 L 352.789062 529.28125 L 47.066406 529.28125 Z M 47.066406 519.804688 "
     id="path4" />
  <path
     fill-rule="evenodd"
     fill="rgb(6.47583%, 5.92804%, 5.235291%)"
     fill-opacity="1"
     d="M 67.285156 510.324219 L 348.351562 510.324219 L 348.351562 519.804688 L 67.285156 519.804688 Z M 67.285156 510.324219 "
     id="path5" />
  <path
     fill-rule="evenodd"
     fill="rgb(74.536133%, 81.242371%, 62.924194%)"
     fill-opacity="1"
     d="M 67.285156 510.324219 L 348.351562 510.324219 L 348.351562 519.804688 L 67.285156 519.804688 Z M 67.285156 510.324219 "
     id="path6" />
  <path
     fill-rule="evenodd"
     fill="rgb(82.228088%, 87.583923%, 71.852112%)"
     fill-opacity="1"
     d="M 89.964844 500.847656 L 344.40625 500.847656 L 344.40625 510.324219 L 89.964844 510.324219 Z M 89.964844 500.847656 "
     id="path7" />
  <path
     fill-rule="evenodd"
     fill="rgb(62.167358%, 68.2724%, 53.327942%)"
     fill-opacity="1"
     d="M 614.628906 519.804688 L 352.789062 519.804688 L 352.789062 529.28125 L 614.628906 529.28125 Z M 614.628906 519.804688 "
     id="path8" />
  <path
     fill-rule="evenodd"
     fill="rgb(6.47583%, 5.92804%, 5.235291%)"
     fill-opacity="1"
     d="M 593.671875 510.324219 L 348.355469 510.324219 L 348.355469 519.804688 L 593.671875 519.804688 Z M 593.671875 510.324219 "
     id="path9" />
  <path
     fill-rule="evenodd"
     fill="rgb(67.082214%, 73.498535%, 56.771851%)"
     fill-opacity="1"
     d="M 593.671875 510.324219 L 348.355469 510.324219 L 348.355469 519.804688 L 593.671875 519.804688 Z M 593.671875 510.324219 "
     id="path10" />
  <path
     fill-rule="evenodd"
     fill="rgb(74.536133%, 81.242371%, 62.924194%)"
     fill-opacity="1"
     d="M 570.492188 500.847656 L 344.40625 500.847656 L 344.40625 510.324219 L 570.492188 510.324219 Z M 570.492188 500.847656 "
     id="path11" />
  <path
     fill-rule="evenodd"
     fill="rgb(62.167358%, 68.2724%, 53.327942%)"
     fill-opacity="1"
     d="M 169.976562 500.847656 L 351.4375 500.847656 L 351.4375 305.167969 L 169.976562 305.167969 Z M 169.976562 500.847656 "
     id="path12" />
  <path
     fill-rule="evenodd"
     fill="rgb(53.407288%, 59.788513%, 45.683289%)"
     fill-opacity="1"
     d="M 232.992188 500 L 210.304688 500 L 210.304688 328.019531 L 204.390625 328.019531 L 204.390625 318.539062 L 238.90625 318.539062 L 238.90625 328.019531 L 232.992188 328.019531 Z M 295.941406 500 L 273.261719 500 L 273.261719 328.019531 L 267.34375 328.019531 L 267.34375 318.539062 L 301.859375 318.539062 L 301.859375 328.019531 L 295.941406 328.019531 Z M 351.4375 500 L 336.210938 500 L 336.210938 328.019531 L 330.296875 328.019531 L 330.296875 318.539062 L 351.4375 318.539062 Z M 351.4375 500 "
     id="path13" />
  <path
     fill-rule="evenodd"
     fill="rgb(53.407288%, 59.788513%, 45.683289%)"
     fill-opacity="1"
     d="M 169.976562 326 L 351.4375 377.777344 L 351.4375 305.167969 L 169.976562 305.167969 Z M 169.976562 326 "
     id="path14" />
  <path
     fill-rule="evenodd"
     fill="rgb(49.403381%, 55.789185%, 41.020203%)"
     fill-opacity="1"
     d="M 351.4375 500.847656 L 559.035156 500.847656 L 559.035156 305.167969 L 351.4375 305.167969 Z M 351.4375 500.847656 "
     id="path15" />
  <path
     fill-rule="evenodd"
     fill="rgb(82.228088%, 87.583923%, 71.852112%)"
     fill-opacity="1"
     d="M 215.402344 229.230469 L 340.839844 305.167969 L 89.964844 305.167969 Z M 215.402344 229.230469 "
     id="path16" />
  <path
     fill-rule="evenodd"
     fill="rgb(49.403381%, 55.789185%, 41.020203%)"
     fill-opacity="1"
     d="M 215.402344 245.324219 L 139.292969 291.398438 L 291.511719 291.398438 Z M 215.402344 245.324219 "
     id="path17" />
  <path
     fill-rule="evenodd"
     fill="rgb(40.72113%, 46.763611%, 33.686829%)"
     fill-opacity="1"
     d="M 283.679688 286.660156 L 228.394531 253.1875 L 173.105469 286.660156 Z M 283.679688 286.660156 "
     id="path18" />
  <path
     fill-rule="evenodd"
     fill="rgb(40.72113%, 46.763611%, 33.686829%)"
     fill-opacity="1"
     d="M 229.027344 500.847656 L 292.390625 500.847656 L 292.390625 386.941406 L 229.027344 386.941406 Z M 229.027344 500.847656 "
     id="path19" />
  <path
     fill-rule="evenodd"
     fill="rgb(37.109375%, 42.588806%, 30.363464%)"
     fill-opacity="1"
     d="M 229.027344 396.0625 L 292.390625 396.0625 L 292.390625 386.9375 L 229.027344 386.9375 Z M 229.027344 396.0625 "
     id="path20" />
  <path
     fill-rule="evenodd"
     fill="rgb(37.109375%, 42.588806%, 30.363464%)"
     fill-opacity="1"
     d="M 278.4375 386.941406 L 292.390625 386.941406 L 292.390625 500 L 278.4375 500 Z M 229.027344 386.941406 L 238.167969 386.941406 L 238.167969 500 L 229.027344 500 Z M 229.027344 386.941406 "
     id="path21" />
  <path
     fill-rule="evenodd"
     fill="rgb(31.929016%, 36.039734%, 26.705933%)"
     fill-opacity="1"
     d="M 469.84375 229.230469 L 595.277344 305.167969 L 340.835938 305.167969 L 215.402344 229.230469 Z M 469.84375 229.230469 "
     id="path22" />
  <path
     fill-rule="evenodd"
     fill="rgb(67.082214%, 73.498535%, 56.771851%)"
     fill-opacity="1"
     d="M 106.007812 491.367188 L 140.523438 491.367188 L 140.523438 500.847656 L 106.007812 500.847656 Z M 106.007812 305.167969 L 140.523438 305.167969 L 140.523438 314.644531 L 106.007812 314.644531 Z M 106.007812 305.167969 "
     id="path23" />
  <path
     fill-rule="evenodd"
     fill="rgb(82.228088%, 87.583923%, 71.852112%)"
     fill-opacity="1"
     d="M 111.925781 491.367188 L 134.605469 491.367188 L 134.605469 314.644531 L 111.925781 314.644531 Z M 111.925781 491.367188 "
     id="path24" />
  <path
     fill-rule="evenodd"
     fill="rgb(74.536133%, 81.242371%, 62.924194%)"
     fill-opacity="1"
     d="M 111.925781 325.382812 C 112.582031 319.878906 132.902344 323.371094 134.605469 336.601562 L 134.605469 314.644531 L 111.925781 314.644531 Z M 111.925781 325.382812 "
     id="path25" />
  <path
     fill-rule="evenodd"
     fill="rgb(67.082214%, 73.498535%, 56.771851%)"
     fill-opacity="1"
     d="M 168.960938 491.367188 L 203.476562 491.367188 L 203.476562 500.847656 L 168.960938 500.847656 Z M 168.960938 305.167969 L 203.476562 305.167969 L 203.476562 314.644531 L 168.960938 314.644531 Z M 168.960938 305.167969 "
     id="path26" />
  <path
     fill-rule="evenodd"
     fill="rgb(82.228088%, 87.583923%, 71.852112%)"
     fill-opacity="1"
     d="M 174.878906 314.644531 L 197.558594 314.644531 L 197.558594 491.367188 L 174.878906 491.367188 Z M 174.878906 314.644531 "
     id="path27" />
  <path
     fill-rule="evenodd"
     fill="rgb(74.536133%, 81.242371%, 62.924194%)"
     fill-opacity="1"
     d="M 174.878906 325.382812 C 175.535156 319.878906 195.855469 323.371094 197.558594 336.601562 L 197.558594 314.644531 L 174.878906 314.644531 Z M 174.878906 325.382812 "
     id="path28" />
  <path
     fill-rule="evenodd"
     fill="rgb(67.082214%, 73.498535%, 56.771851%)"
     fill-opacity="1"
     d="M 231.910156 491.367188 L 266.429688 491.367188 L 266.429688 500.847656 L 231.910156 500.847656 Z M 231.910156 305.167969 L 266.429688 305.167969 L 266.429688 314.644531 L 231.910156 314.644531 Z M 231.910156 305.167969 "
     id="path29" />
  <path
     fill-rule="evenodd"
     fill="rgb(82.228088%, 87.583923%, 71.852112%)"
     fill-opacity="1"
     d="M 237.828125 314.644531 L 260.515625 314.644531 L 260.515625 491.367188 L 237.828125 491.367188 Z M 237.828125 314.644531 "
     id="path30" />
  <path
     fill-rule="evenodd"
     fill="rgb(74.536133%, 81.242371%, 62.924194%)"
     fill-opacity="1"
     d="M 237.828125 325.382812 C 238.488281 319.878906 258.808594 323.371094 260.511719 336.601562 L 260.511719 314.644531 L 237.828125 314.644531 Z M 237.828125 325.382812 "
     id="path31" />
  <path
     fill-rule="evenodd"
     fill="rgb(67.082214%, 73.498535%, 56.771851%)"
     fill-opacity="1"
     d="M 294.867188 491.367188 L 329.382812 491.367188 L 329.382812 500.847656 L 294.867188 500.847656 Z M 294.867188 305.167969 L 329.382812 305.167969 L 329.382812 314.644531 L 294.867188 314.644531 Z M 294.867188 305.167969 "
     id="path32" />
  <path
     fill-rule="evenodd"
     fill="rgb(82.228088%, 87.583923%, 71.852112%)"
     fill-opacity="1"
     d="M 300.78125 491.367188 L 323.464844 491.367188 L 323.464844 314.644531 L 300.78125 314.644531 Z M 300.78125 491.367188 "
     id="path33" />
  <path
     fill-rule="evenodd"
     fill="rgb(74.536133%, 81.242371%, 62.924194%)"
     fill-opacity="1"
     d="M 300.78125 325.382812 C 301.441406 319.878906 321.761719 323.371094 323.464844 336.601562 L 323.464844 314.644531 L 300.78125 314.644531 Z M 300.78125 325.382812 "
     id="path34" />
  <path
     fill-rule="evenodd"
     fill="rgb(40.72113%, 46.763611%, 33.686829%)"
     fill-opacity="1"
     d="M 351.4375 377.777344 L 559.035156 408.84375 L 559.035156 305.167969 L 351.4375 305.167969 Z M 351.4375 377.777344 "
     id="path35" />
  <path
     fill-rule="evenodd"
     fill="rgb(82.228088%, 87.583923%, 71.852112%)"
     fill-opacity="1"
     d="M 390.308594 389.039062 C 401.023438 389.039062 409.785156 397.804688 409.785156 408.515625 L 409.785156 464.480469 L 370.832031 464.480469 L 370.832031 408.515625 C 370.832031 397.804688 379.59375 389.039062 390.308594 389.039062 "
     id="path36" />
  <path
     fill-rule="evenodd"
     fill="rgb(74.536133%, 81.242371%, 62.924194%)"
     fill-opacity="1"
     d="M 374.035156 461.273438 L 406.582031 461.273438 L 406.582031 408.515625 C 406.582031 399.574219 399.253906 392.246094 390.308594 392.246094 C 381.363281 392.246094 374.035156 399.574219 374.035156 408.515625 Z M 374.035156 461.273438 "
     id="path37" />
  <path
     fill-rule="evenodd"
     fill="rgb(25.395203%, 27.95105%, 21.075439%)"
     fill-opacity="1"
     d="M 382.476562 394.269531 C 377.457031 397.050781 374.035156 402.40625 374.035156 408.515625 L 374.035156 411.960938 L 382.476562 411.960938 Z M 401.160156 411.960938 L 401.160156 408.515625 C 401.160156 400.496094 395.261719 393.777344 387.597656 392.472656 C 387.074219 392.5625 386.558594 392.675781 386.054688 392.816406 L 386.054688 411.960938 Z M 382.476562 415.539062 L 374.035156 415.539062 L 374.035156 439.824219 L 382.476562 439.824219 Z M 401.160156 415.539062 L 386.054688 415.539062 L 386.054688 439.824219 L 401.160156 439.824219 Z M 386.054688 461.273438 L 401.160156 461.273438 L 401.160156 443.398438 L 386.054688 443.398438 Z M 374.035156 461.273438 L 382.476562 461.273438 L 382.476562 443.398438 L 374.035156 443.398438 Z M 374.035156 461.273438 "
     id="path38" />
  <path
     fill-rule="evenodd"
     fill="rgb(82.228088%, 87.583923%, 71.852112%)"
     fill-opacity="1"
     d="M 451.667969 389.039062 C 462.378906 389.039062 471.144531 397.804688 471.144531 408.515625 L 471.144531 464.480469 L 432.1875 464.480469 L 432.1875 408.515625 C 432.1875 397.804688 440.953125 389.039062 451.667969 389.039062 "
     id="path39" />
  <path
     fill-rule="evenodd"
     fill="rgb(74.536133%, 81.242371%, 62.924194%)"
     fill-opacity="1"
     d="M 435.394531 461.273438 L 467.9375 461.273438 L 467.9375 408.515625 C 467.9375 399.574219 460.609375 392.246094 451.667969 392.246094 C 442.722656 392.246094 435.394531 399.574219 435.394531 408.515625 Z M 435.394531 461.273438 "
     id="path40" />
  <path
     fill-rule="evenodd"
     fill="rgb(25.395203%, 27.95105%, 21.075439%)"
     fill-opacity="1"
     d="M 443.835938 394.269531 C 438.816406 397.050781 435.394531 402.40625 435.394531 408.515625 L 435.394531 411.960938 L 443.835938 411.960938 Z M 462.515625 411.960938 L 462.515625 408.515625 C 462.515625 400.496094 456.621094 393.777344 448.953125 392.472656 C 448.429688 392.5625 447.914062 392.675781 447.410156 392.816406 L 447.410156 411.960938 Z M 443.835938 415.539062 L 435.394531 415.539062 L 435.394531 439.824219 L 443.835938 439.824219 Z M 462.515625 415.539062 L 447.410156 415.539062 L 447.410156 439.824219 L 462.515625 439.824219 Z M 447.410156 461.273438 L 462.515625 461.273438 L 462.515625 443.398438 L 447.410156 443.398438 Z M 435.394531 461.273438 L 443.835938 461.273438 L 443.835938 443.398438 L 435.394531 443.398438 Z M 435.394531 461.273438 "
     id="path41" />
  <path
     fill-rule="evenodd"
     fill="rgb(82.228088%, 87.583923%, 71.852112%)"
     fill-opacity="1"
     d="M 513.023438 389.039062 C 523.738281 389.039062 532.503906 397.804688 532.503906 408.515625 L 532.503906 464.480469 L 493.546875 464.480469 L 493.546875 408.515625 C 493.546875 397.804688 502.308594 389.039062 513.023438 389.039062 "
     id="path42" />
  <path
     fill-rule="evenodd"
     fill="rgb(74.536133%, 81.242371%, 62.924194%)"
     fill-opacity="1"
     d="M 496.753906 461.273438 L 529.296875 461.273438 L 529.296875 408.515625 C 529.296875 399.574219 521.96875 392.246094 513.023438 392.246094 C 504.082031 392.246094 496.753906 399.574219 496.753906 408.515625 Z M 496.753906 461.273438 "
     id="path43" />
  <path
     fill-rule="evenodd"
     fill="rgb(25.395203%, 27.95105%, 21.075439%)"
     fill-opacity="1"
     d="M 505.195312 394.269531 C 500.171875 397.050781 496.753906 402.40625 496.753906 408.515625 L 496.753906 411.960938 L 505.195312 411.960938 Z M 523.871094 411.960938 L 523.871094 408.515625 C 523.871094 400.496094 517.976562 393.777344 510.3125 392.472656 C 509.789062 392.5625 509.273438 392.675781 508.765625 392.816406 L 508.765625 411.960938 Z M 505.195312 415.539062 L 496.753906 415.539062 L 496.753906 439.824219 L 505.195312 439.824219 Z M 523.871094 415.539062 L 508.769531 415.539062 L 508.769531 439.824219 L 523.871094 439.824219 Z M 508.765625 461.273438 L 523.871094 461.273438 L 523.871094 443.398438 L 508.765625 443.398438 Z M 496.753906 461.273438 L 505.195312 461.273438 L 505.195312 443.398438 L 496.753906 443.398438 Z M 496.753906 461.273438 "
     id="path44" />
  <path
     fill-rule="evenodd"
     fill="rgb(97.694397%, 90.582275%, 5.418396%)"
     fill-opacity="1"
     d="M 231.910156 210.113281 C 266.585938 210.113281 294.867188 181.832031 294.867188 147.160156 C 294.867188 112.484375 266.585938 84.207031 231.910156 84.207031 C 197.242188 84.207031 168.960938 112.484375 168.960938 147.160156 C 168.960938 181.832031 197.242188 210.113281 231.910156 210.113281 "
     id="path45" />
</svg>
